<!DOCTYPE svg PUBLIC "-//W3C//DTD SVG 1.1//EN" "http://www.w3.org/Graphics/SVG/1.1/DTD/svg11.dtd">
<!-- Uploaded to: SVG Repo, www.svgrepo.com, Transformed by: SVG Repo Mixer Tools -->
<svg fill="#ffff" width="800px" height="800px" viewBox="0 0 24.00 24.00" id="photo-camera" data-name="Flat Color" xmlns="http://www.w3.org/2000/svg" class="icon flat-color" stroke="#ffff" stroke-width="1.296">
<g id="SVGRepo_bgCarrier" stroke-width="0"/>
<g id="SVGRepo_tracerCarrier" stroke-linecap="round" stroke-linejoin="round" stroke="#CCCCCC" stroke-width="0.048">
<path id="primary" d="M20,5H16.62l-.45-.89A2,2,0,0,0,14.38,3H9.62A2,2,0,0,0,7.83,4.11L7.38,5H4A2,2,0,0,0,2,7V19a2,2,0,0,0,2,2H20a2,2,0,0,0,2-2V7A2,2,0,0,0,20,5Z" style="fill: #00203FFF;"/>
<circle id="secondary" cx="12" cy="13" r="4" style="fill: #1654e9;"/>
</g>
<g id="SVGRepo_iconCarrier">
<path id="primary" d="M20,5H16.62l-.45-.89A2,2,0,0,0,14.38,3H9.62A2,2,0,0,0,7.83,4.11L7.38,5H4A2,2,0,0,0,2,7V19a2,2,0,0,0,2,2H20a2,2,0,0,0,2-2V7A2,2,0,0,0,20,5Z" style="fill: #00203FFF;"/>
<circle id="secondary" cx="12" cy="13" r="4" style="fill: #1654e9;"/>
</g>
</svg>