<?xml version="1.0" encoding="utf-8"?>
<!-- Generator: Adobe Illustrator 27.5.0, SVG Export Plug-In . SVG Version: 6.00 Build 0)  -->
<svg version="1.1" xmlns="http://www.w3.org/2000/svg" xmlns:xlink="http://www.w3.org/1999/xlink" x="0px" y="0px"
	 viewBox="50 100 700 600" style="enable-background:new  -200 200 750 400;" xml:space="preserve">
<g id="background">
	<g>
		<defs>
			<filter id="Adobe_OpacityMaskFilter" filterUnits="userSpaceOnUse" x="0.992" y="1.581" width="448.48" height="424.614">
				<feFlood  style="flood-color:white;flood-opacity:1" result="back"/>
				<feBlend  in="SourceGraphic" in2="back" mode="normal"/>
			</filter>
		</defs>
		<mask maskUnits="userSpaceOnUse" x="0.952" y="1.581" width="448.48" height="424.614" id="SVGID_1_">
			<g style="filter:url(#Adobe_OpacityMaskFilter);">
				<defs>
					
						<filter id="Adobe_OpacityMaskFilter_00000125601711796755507730000012067110593376521905_" filterUnits="userSpaceOnUse" x="0.992" y="1.581" width="448.48" height="424.614">
						<feFlood  style="flood-color:white;flood-opacity:1" result="back"/>
						<feBlend  in="SourceGraphic" in2="back" mode="normal"/>
					</filter>
				</defs>
				<mask maskUnits="userSpaceOnUse" x="0.992" y="1.581" width="448.48" height="424.614" id="SVGID_1_">
					<g style="filter:url(#Adobe_OpacityMaskFilter_00000125601711796755507730000012067110593376521905_);">
					</g>
				</mask>
				
					<linearGradient id="SVGID_00000008141283215810998850000006568871356632283807_" gradientUnits="userSpaceOnUse" x1="422.423" y1="448.8909" x2="28.0404" y2="-21.116">
					<stop  offset="0.3987" style="stop-color:#000000"/>
					<stop  offset="1" style="stop-color:#999999"/>
				</linearGradient>
				
			</g>
		</mask>
		
			<linearGradient id="SVGID_00000118359294321252570300000015806332788168597943_" gradientUnits="userSpaceOnUse" x1="422.423" y1="448.8909" x2="28.0404" y2="-21.116">
			<stop  offset="0.3987" style="stop-color:#FFFFFF"/>
			<stop  offset="1" style="stop-color:#D0D2D3"/>
		</linearGradient>
		

		<defs>
			
				<filter id="Adobe_OpacityMaskFilter_00000172440458444856080480000014950731210275484820_" filterUnits="userSpaceOnUse" x="350.886" y="0" width="448.48" height="424.613">
				<feFlood  style="flood-color:white;flood-opacity:1" result="back"/>
				<feBlend  in="SourceGraphic" in2="back" mode="normal"/>
			</filter>
		</defs>
		
			<mask maskUnits="userSpaceOnUse" x="350.886" y="0" width="448.48" height="424.613" id="SVGID_00000029030999655009429120000009466485089250615962_">
			<g style="filter:url(#Adobe_OpacityMaskFilter_00000172440458444856080480000014950731210275484820_);">
				<defs>
					
						<filter id="Adobe_OpacityMaskFilter_00000162343228984847484160000018234203449713695421_" filterUnits="userSpaceOnUse" x="350.886" y="0" width="448.48" height="424.613">
						<feFlood  style="flood-color:white;flood-opacity:1" result="back"/>
						<feBlend  in="SourceGraphic" in2="back" mode="normal"/>
					</filter>
				</defs>
				
					<mask maskUnits="userSpaceOnUse" x="350.886" y="0" width="448.48" height="424.613" id="SVGID_00000029030999655009429120000009466485089250615962_">
					<g style="filter:url(#Adobe_OpacityMaskFilter_00000162343228984847484160000018234203449713695421_);">
					</g>
				</mask>
				
					<linearGradient id="SVGID_00000176722504815205681230000016536713135148059020_" gradientUnits="userSpaceOnUse" x1="977.1861" y1="447.3099" x2="582.8037" y2="-22.6966" gradientTransform="matrix(-1 0 0 1 1355.1211 0)">
					<stop  offset="0.3987" style="stop-color:#000000"/>
					<stop  offset="1" style="stop-color:#999999"/>
				</linearGradient>
				

			</g>
		</mask>
		
			<linearGradient id="SVGID_00000080909388227940371510000011030834302301298570_" gradientUnits="userSpaceOnUse" x1="977.1861" y1="447.3099" x2="582.8037" y2="-22.6966" gradientTransform="matrix(-1 0 0 1 1355.1211 0)">
			<stop  offset="0.3987" style="stop-color:#FFFFFF"/>
			<stop  offset="1" style="stop-color:#D0D2D3"/>
		</linearGradient>
		
		<defs>
			
				<filter id="Adobe_OpacityMaskFilter_00000054241259590507952670000017054229140985120649_" filterUnits="userSpaceOnUse" x="0" y="373.807" width="448.477" height="424.612">
				<feFlood  style="flood-color:white;flood-opacity:1" result="back"/>
				<feBlend  in="SourceGraphic" in2="back" mode="normal"/>
			</filter>
		</defs>
		
			<mask maskUnits="userSpaceOnUse" x="0" y="373.807" width="448.477" height="424.612" id="SVGID_00000068672297785898015180000013703678371775137185_">
			<g style="filter:url(#Adobe_OpacityMaskFilter_00000054241259590507952670000017054229140985120649_);">
				<defs>
					
						<filter id="Adobe_OpacityMaskFilter_00000134224345472474655280000004342887604289399990_" filterUnits="userSpaceOnUse" x="0" y="373.807" width="448.477" height="424.612">
						<feFlood  style="flood-color:white;flood-opacity:1" result="back"/>
						<feBlend  in="SourceGraphic" in2="back" mode="normal"/>
					</filter>
				</defs>
				
					<mask maskUnits="userSpaceOnUse" x="0" y="373.807" width="448.477" height="424.612" id="SVGID_00000068672297785898015180000013703678371775137185_">
					<g style="filter:url(#Adobe_OpacityMaskFilter_00000134224345472474655280000004342887604289399990_);">
					</g>
				</mask>
				
					<linearGradient id="SVGID_00000106826973321449831300000011225572502044762552_" gradientUnits="userSpaceOnUse" x1="421.4292" y1="825.1749" x2="27.0483" y2="355.1701" gradientTransform="matrix(1 0 0 -1 0 1176.2852)">
					<stop  offset="0.3987" style="stop-color:#000000"/>
					<stop  offset="1" style="stop-color:#999999"/>
				</linearGradient>
				
			</g>
		</mask>
		
			<linearGradient id="SVGID_00000126310829977235064320000004515009626000069821_" gradientUnits="userSpaceOnUse" x1="421.4292" y1="825.1749" x2="27.0483" y2="355.1701" gradientTransform="matrix(1 0 0 -1 0 1176.2852)">
			<stop  offset="0.3987" style="stop-color:#FFFFFF"/>
			<stop  offset="1" style="stop-color:#D0D2D3"/>
		</linearGradient>
		
		<defs>
			
				<filter id="Adobe_OpacityMaskFilter_00000181078622796308598330000004480891298232093107_" filterUnits="userSpaceOnUse" x="349.894" y="375.386" width="448.48" height="424.614">
				<feFlood  style="flood-color:white;flood-opacity:1" result="back"/>
				<feBlend  in="SourceGraphic" in2="back" mode="normal"/>
			</filter>
		</defs>
		
			<mask maskUnits="userSpaceOnUse" x="349.894" y="375.386" width="448.48" height="424.614" id="SVGID_00000080925737649235467830000013104415411395891340_">
			<g style="filter:url(#Adobe_OpacityMaskFilter_00000181078622796308598330000004480891298232093107_);">
				<defs>
					
						<filter id="Adobe_OpacityMaskFilter_00000135653642577902209170000016371075497769245100_" filterUnits="userSpaceOnUse" x="349.894" y="375.386" width="448.48" height="424.614">
						<feFlood  style="flood-color:white;flood-opacity:1" result="back"/>
						<feBlend  in="SourceGraphic" in2="back" mode="normal"/>
					</filter>
				</defs>
				
					<mask maskUnits="userSpaceOnUse" x="349.894" y="375.386" width="448.48" height="424.614" id="SVGID_00000080925737649235467830000013104415411395891340_">
					<g style="filter:url(#Adobe_OpacityMaskFilter_00000135653642577902209170000016371075497769245100_);">
					</g>
				</mask>
				
					<linearGradient id="SVGID_00000066499390672693037760000010654903168435785626_" gradientUnits="userSpaceOnUse" x1="978.1784" y1="823.5955" x2="583.7958" y2="353.5887" gradientTransform="matrix(-1 0 0 -1 1355.1211 1176.2852)">
					<stop  offset="0.3987" style="stop-color:#000000"/>
					<stop  offset="1" style="stop-color:#999999"/>
				</linearGradient>
				
			</g>
		</mask>
		
			<linearGradient id="SVGID_00000077288682465362981250000014595091796237103757_" gradientUnits="userSpaceOnUse" x1="978.1784" y1="823.5955" x2="583.7958" y2="353.5887" gradientTransform="matrix(-1 0 0 -1 1355.1211 1176.2852)">
			<stop  offset="0.3987" style="stop-color:#FFFFFF"/>
			<stop  offset="1" style="stop-color:#D0D2D3"/>
		</linearGradient>
		
	</g>
	<g>
		</g>
</g>
<g id="object">
	<g>
		<g>
			<g>
				<path style="fill-rule:evenodd;clip-rule:evenodd;fill:#FBB017;" d="M194.923,279.805
					c44.917,65.504,243.492,55.751,255.039,52.01c11.538-3.741-16.41-20.206-22.863-30
					c-96.908-24.625-160.542-31.444-211.146-76.314C192.77,204.946,173.603,248.713,194.923,279.805z"/>
			</g>
			<g>
				<path style="fill-rule:evenodd;clip-rule:evenodd;fill:#009B95;" d="M181.727,484.93
					c79.272,4.934,193.841-157.55,198.003-168.952c4.156-11.396-6.972-18.156-18.662-19.102
					c-79.067,61.205-142.672,125.798-209.186,138.05C121.413,440.54,144.101,482.589,181.727,484.93z"/>
			</g>
			<g>
				<path style="fill-rule:evenodd;clip-rule:evenodd;fill:#1F61AD;" d="M331.097,620.541
					c52.693-59.429-4.811-249.746-11.233-260.045c-6.422-10.291-15.83-6.551-23.771,2.08
					c-0.449,99.987,8.522,190.742-22.774,250.699C258.983,640.741,306.087,648.75,331.097,620.541z"/>
			</g>
			<g>
				<path style="fill-rule:evenodd;clip-rule:evenodd;fill:#5F439A;" d="M533.093,586.991
					c-14.39-78.111-199.765-149.968-211.834-151.247c-12.064-1.275-16.379,8.756-14.468,20.327
					c78.515,61.911,157.026,110.402,185.004,171.977C504.612,656.253,539.925,624.066,533.093,586.991z"/>
			</g>
			<g>
				<path style="fill-rule:evenodd;clip-rule:evenodd;fill:#AF3862;" d="M633.254,407.411
					c-70.411-36.75-241.163,65.089-249.602,73.811c-8.433,8.721-1.663,18.287,8.631,23.904
					c97.126-23.752,182.151-55.756,247.898-39.895C670.299,472.496,666.676,424.853,633.254,407.411z"/>
			</g>
			<g>
				<path style="fill-rule:evenodd;clip-rule:evenodd;fill:#ED2F24;" d="M553.06,219.729
					c-72.31,32.859-97.185,230.111-95.507,242.132c1.68,12.014,12.836,14.229,23.601,9.576
					c41.081-91.16,68.759-179.525,121.734-221.569C627.157,230.608,587.381,204.131,553.06,219.729z"/>
			</g>
			<g>
				<path style="fill-rule:evenodd;clip-rule:evenodd;fill:#F47E20;" d="M356.485,170.466
					c-18.625,77.21,121.497,218.253,132.002,224.331c10.502,6.072,22.9,0.196,25.861-11.152
					c-46.545-88.495-102.921-166.258-103.436-233.889C410.676,118.775,365.325,133.817,356.485,170.466z"/>
			</g>
			<path style="fill-rule:evenodd;clip-rule:evenodd;fill:#FBB017;" d="M404.424,297.803c-7.577,26.787,3.97,28.658,8.607,36.906
				c14.528,18.838,52.765,3.98,58.335,1.682c1.006-0.355,2.052-0.728,2.961-1.055c8.733-3.132,14.37-10.482,12.477-15.751
				c-1.015-2.828-3.97-4.626-7.835-5.214c4.115-3.495,6.21-7.925,4.948-11.438c-1.221-3.403-5.246-5.318-10.292-5.416
				c3.602-3.378,5.354-7.474,4.173-10.762c-1.554-4.332-7.646-6.268-14.61-5.085c2.255-2.74,3.228-5.768,2.323-8.284
				c-1.741-4.855-9.672-6.452-17.716-3.563c-3.004,1.076-5.596,2.628-7.577,4.399C429.067,275.737,409.475,279.94,404.424,297.803z"
				/>
			<path style="fill-rule:evenodd;clip-rule:evenodd;fill:#F47E20;" d="M488.739,342.438c-26.988,6.825-22.84,17.76-27.667,25.899
				c-9.056,21.998,22.921,47.693,27.695,51.369c0.81,0.693,1.655,1.412,2.395,2.037c7.077,6,16.259,7.21,19.878,2.936
				c1.942-2.292,2.023-5.752,0.601-9.391c5.084,1.816,9.967,1.416,12.379-1.432c2.338-2.759,1.985-7.203-0.451-11.621
				c4.727,1.433,9.148,0.903,11.407-1.762c2.976-3.513,1.608-9.756-2.898-15.199c3.501,0.587,6.611-0.085,8.337-2.126
				c3.335-3.934,0.756-11.603-5.767-17.125c-2.434-2.065-5.073-3.534-7.597-4.367C520.167,352.756,506.735,337.887,488.739,342.438z
				"/>
			<path style="fill-rule:evenodd;clip-rule:evenodd;fill:#ED2F24;" d="M497.134,428.248c-22.357-16.585-28.202-6.454-37.56-5.045
				c-22.768,6.9-22.443,47.92-22.268,53.943c-0.026,1.065-0.048,2.175-0.065,3.143c-0.17,9.277,4.699,17.154,10.299,17.253
				c3.004,0.056,5.735-2.07,7.654-5.475c1.808,5.088,5.206,8.617,8.94,8.684c3.614,0.065,6.833-3.018,8.715-7.7
				c1.88,4.567,5.087,7.657,8.579,7.72c4.605,0.084,8.573-4.925,9.94-11.856c1.76,3.081,4.247,5.065,6.921,5.112
				c5.156,0.094,9.464-6.754,9.616-15.3c0.061-3.189-0.472-6.165-1.422-8.646C509.02,459.118,512.041,439.31,497.134,428.248z"/>
			<path style="fill-rule:evenodd;clip-rule:evenodd;fill:#AF3862;" d="M434.796,496.455c-3.176-27.656-14.565-24.998-21.99-30.864
				c-20.598-11.902-50.317,16.373-54.595,20.615c-0.796,0.71-1.621,1.454-2.337,2.102c-6.889,6.216-9.309,15.157-5.555,19.312
				c2.013,2.23,5.431,2.77,9.228,1.844c-2.477,4.799-2.73,9.69-0.228,12.46c2.421,2.685,6.873,2.926,11.576,1.099
				c-2.048,4.496-2.112,8.947,0.23,11.541c3.086,3.416,9.454,2.891,15.449-0.851c-1.045,3.393-0.796,6.563,0.997,8.546
				c3.456,3.828,11.4,2.292,17.742-3.437c2.37-2.137,4.177-4.559,5.339-6.95C420.388,526.233,436.911,514.898,434.796,496.455z"/>
			<path style="fill-rule:evenodd;clip-rule:evenodd;fill:#5F439A;" d="M347.079,487.069c21.491-17.694,13.07-25.811,13.959-35.231
				c-1.2-23.761-41.086-33.344-46.974-34.63c-1.028-0.281-2.1-0.57-3.034-0.82c-8.961-2.403-17.782,0.422-19.229,5.832
				c-0.779,2.901,0.625,6.065,3.466,8.749c-5.374,0.526-9.618,2.974-10.583,6.578c-0.938,3.493,1.278,7.362,5.368,10.317
				c-4.887,0.722-8.658,3.087-9.563,6.464c-1.191,4.446,2.711,9.508,9.109,12.506c-3.416,0.965-5.941,2.897-6.632,5.482
				c-1.336,4.982,4.27,10.815,12.526,13.024c3.082,0.827,6.097,1.029,8.735,0.706C314.252,491.156,332.747,498.867,347.079,487.069z
				"/>
			<path style="fill-rule:evenodd;clip-rule:evenodd;fill:#1F61AD;" d="M300.6,408.699c27.717,2.598,27.465-9.097,34.735-15.153
				c15.896-17.7-5.644-52.611-8.913-57.673c-0.532-0.925-1.087-1.884-1.574-2.721c-4.663-8.021-12.911-12.235-17.75-9.416
				c-2.598,1.508-3.832,4.744-3.708,8.647c-4.182-3.413-8.918-4.668-12.144-2.792c-3.126,1.817-4.282,6.124-3.464,11.103
				c-3.976-2.933-8.318-3.912-11.339-2.155c-3.979,2.314-4.778,8.655-2.354,15.292c-3.103-1.723-6.257-2.132-8.568-0.785
				c-4.459,2.592-4.595,10.681-0.295,18.066c1.602,2.761,3.598,5.029,5.699,6.659C274.433,388.461,282.118,406.968,300.6,408.699z"
				/>
			<g>
				<path style="fill-rule:evenodd;clip-rule:evenodd;fill:#FBB017;" d="M431.555,301.438
					c-27.806-7.066-52.861-12.665-75.666-18.118c18.665,13.709,36.593,30.211,45.169,50.911c28.788,0.057,49.827-1.649,53.36-2.794
					C465.956,327.696,438.008,311.231,431.555,301.438z"/>
			</g>
			<path style="fill-rule:evenodd;clip-rule:evenodd;fill:#009B95;" d="M338.46,328.086c19.657,19.71,26.935,10.555,36.399,10.544
				c23.539-3.455,29.285-44.072,30.004-50.055c0.182-1.051,0.368-2.143,0.527-3.098c1.54-9.15-2.11-17.662-7.634-18.588
				c-2.961-0.5-5.978,1.199-8.379,4.282c-1.036-5.298-3.875-9.292-7.556-9.909c-3.566-0.602-7.207,1.973-9.76,6.325
				c-1.183-4.795-3.896-8.326-7.342-8.905c-4.539-0.764-9.207,3.603-11.582,10.256c-1.286-3.308-3.452-5.637-6.089-6.078
				c-5.086-0.858-10.361,5.278-11.773,13.707c-0.532,3.148-0.447,6.167,0.128,8.762C331.268,295.796,325.351,314.94,338.46,328.086z
				"/>
		</g>
		<g>
			
				<polyline style="fill-rule:evenodd;clip-rule:evenodd;fill:none;stroke:#009B95;stroke-width:23;stroke-linejoin:round;stroke-miterlimit:10;" points="
				221.135,548.013 144.481,450.945 170.147,340.923 			"/>

				<polyline style="fill-rule:evenodd;clip-rule:evenodd;fill:none;stroke:#1F61AD;stroke-width:23;stroke-linejoin:round;stroke-miterlimit:10;" points="
				408.685,628.32 284.081,627.725 221.135,548.013 			"/>
			
				<polyline style="fill-rule:evenodd;clip-rule:evenodd;fill:none;stroke:#5F439A;stroke-width:23;stroke-linejoin:round;stroke-miterlimit:10;" points="
				585.371,534.38 509.332,628.802 408.685,628.32 			"/>
			
				<polyline style="fill-rule:evenodd;clip-rule:evenodd;fill:none;stroke:#AF3862;stroke-width:23;stroke-linejoin:round;stroke-miterlimit:10;" points="
				625.427,340.522 650.615,453.364 585.371,534.38 			"/>
			
				<polyline style="fill-rule:evenodd;clip-rule:evenodd;fill:none;stroke:#ED2F24;stroke-width:23;stroke-linejoin:round;stroke-miterlimit:10;" points="
				497.621,182.865 601.544,233.525 625.427,340.522 			"/>
			
				<polyline style="fill-rule:evenodd;clip-rule:evenodd;fill:none;stroke:#F47E20;stroke-width:23;stroke-linejoin:round;stroke-miterlimit:10;" points="
				291.649,185.919 399.064,134.821 497.621,182.865 			"/>
			
				<polyline style="fill-rule:evenodd;clip-rule:evenodd;fill:none;stroke:#FBB017;stroke-width:23;stroke-linejoin:round;stroke-miterlimit:10;" points="
				170.147,340.923 195.653,231.584 291.649,185.919 			"/>
		</g>
	</g>
</g>
</svg>
