<?xml version="1.0" encoding="utf-8"?>
<!-- Generator: Adobe Illustrator 27.5.0, SVG Export Plug-In . SVG Version: 6.00 Build 0)  -->
<svg version="1.1" xmlns="http://www.w3.org/2000/svg" xmlns:xlink="http://www.w3.org/1999/xlink" x="0px" y="0px"
	 viewBox="1050 770 2875 1575" style="enable-background:new 900 800 3175 1475;" xml:space="preserve">
<g id="Layer_1">
	<rect x="9.001" style="fill:#FFFFFF;" width="4975.001" height="4975"/>
</g>
<g id="Isolation_Mode">
	<g>
		<g>
			<g>
				<g>
					<g>
						<path style="fill:#FFD400;" d="M2884.029,437.947c-84.831-38.618-154.342,337.759-350.358,359.815
							c-195.104-29.003-251.212-407.614-337.359-372.029c-89.409,36.938-9.838,167.306,29.651,276.784
							c52.667,145.966,138.123,389.207,138.123,389.207s49.51,166.632,161.369,168.612
							c111.86,1.991,167.253-162.776,167.253-162.776s94.046-240.052,151.854-384.061
							C2887.918,605.497,2972.067,478.036,2884.029,437.947z"/>
						<path style="fill:#FFD400;" d="M2683.682,517.269c-1.416,80.073-68.467,199.067-148.542,197.642
							c-80.07-1.42-142.846-122.72-141.429-202.796c1.422-80.072,67.488-143.831,147.566-142.409
							C2621.344,371.128,2685.105,437.194,2683.682,517.269z"/>
					</g>
				</g>
			</g>
		</g>
		<g>
			<g>
				<g>
					<g>
						<path style="fill:#F7941D;" d="M1969.855,503.336c-87.294,32.678,129.693,347.965,6.686,502.166
							c-158.469,117.456-465.861-110.59-501.612-24.512c-37.102,89.34,111.348,125.261,216.681,174.748
							c140.456,65.973,372.881,177.544,372.881,177.544s152.833,82.817,233.329,5.119c80.506-77.687,3.168-233.367,3.168-233.367
							s-103.242-236.241-164.196-378.947C2091.079,619.063,2060.455,469.431,1969.855,503.336z"/>
						<path style="fill:#F7941D;" d="M1884.274,701.094c55.62,57.62,92.351,189.174,34.72,244.787
							c-57.622,55.613-187.784,14.232-243.405-43.393c-55.611-57.625-53.98-149.428,3.647-205.043
							C1736.859,641.835,1828.662,643.464,1884.274,701.094z"/>
					</g>
				</g>
			</g>
		</g>
		<g>
			<g>
				<g>
					<g>
						<path style="fill:#ED1C24;" d="M1369.672,1195.992c-38.62,84.832,337.757,154.341,359.815,350.359
							c-29.003,195.108-407.614,251.213-372.029,337.357c36.94,89.409,167.309,9.842,276.781-29.648
							c145.968-52.669,389.211-138.123,389.211-138.123s166.629-49.512,168.607-161.372
							c1.994-111.858-162.774-167.254-162.774-167.254s-240.05-94.042-384.06-151.853
							C1537.221,1192.104,1409.763,1107.955,1369.672,1195.992z"/>
						<path style="fill:#ED1C24;" d="M1448.994,1396.344c80.072,1.412,199.07,68.462,197.642,148.539
							c-1.424,80.067-122.72,142.846-202.796,141.429c-80.072-1.425-143.832-67.491-142.409-147.566
							C1302.853,1458.678,1368.919,1394.916,1448.994,1396.344z"/>
					</g>
				</g>
			</g>
		</g>
		<g>
			<g>
				<g>
					<g>
						<path style="fill:#3C2415;" d="M1435.061,2110.166c32.676,87.296,347.963-129.692,502.169-6.684
							c117.453,158.469-110.59,465.86-24.519,501.613c89.344,37.099,125.265-111.348,174.748-216.681
							c65.977-140.457,177.551-372.882,177.551-372.882s82.815-152.835,5.115-233.329c-77.686-80.506-233.365-3.168-233.365-3.168
							s-236.24,103.242-378.949,164.197C1550.787,1988.943,1401.158,2019.567,1435.061,2110.166z"/>
						<path style="fill:#3C2415;" d="M1632.822,2195.748c57.617-55.622,189.172-92.354,244.785-34.72
							c55.609,57.622,14.231,187.784-43.394,243.403c-57.625,55.61-149.425,53.982-205.043-3.646
							C1573.56,2343.163,1575.188,2251.36,1632.822,2195.748z"/>
					</g>
				</g>
			</g>
		</g>
		<g>
			<g>
				<g>
					<g>
						<path d="M2127.716,2710.347c84.833,38.624,154.341-337.751,350.362-359.811c195.104,29.003,251.212,407.61,337.354,372.026
							c89.41-36.939,9.842-167.307-29.65-276.779c-52.664-145.968-138.119-389.211-138.119-389.211s-49.515-166.632-161.371-168.606
							c-111.859-1.995-167.256,162.773-167.256,162.773s-94.045,240.05-151.85,384.062
							C2123.829,2542.803,2039.682,2670.26,2127.716,2710.347z"/>
						<path d="M2328.068,2631.025c1.415-80.072,68.464-199.065,148.539-197.637c80.067,1.422,142.846,122.719,141.429,202.792
							c-1.427,80.069-67.489,143.83-147.566,142.412C2390.402,2777.17,2326.644,2711.105,2328.068,2631.025z"/>
					</g>
				</g>
			</g>
		</g>
		<g>
			<g>
				<g>
					<g>
						<path style="fill:#4452A3;" d="M3041.889,2644.959c87.3-32.672-129.691-347.963-6.68-502.167
							c158.469-117.454,465.855,110.591,501.609,24.52c37.099-89.344-111.344-125.268-216.682-174.747
							c-140.453-65.977-372.878-177.551-372.878-177.551s-152.839-82.815-233.332-5.117c-80.506,77.687-3.168,233.366-3.168,233.366
							s103.242,236.242,164.198,378.944C2920.668,2529.235,2951.294,2678.865,3041.889,2644.959z"/>
						<path style="fill:#4452A3;" d="M3127.472,2447.201c-55.62-57.619-92.353-189.173-34.72-244.785
							c57.622-55.609,187.784-14.231,243.4,43.393c55.613,57.627,53.984,149.424-3.643,205.043
							C3274.888,2506.464,3183.087,2504.83,3127.472,2447.201z"/>
					</g>
				</g>
			</g>
		</g>
		<g>
			<g>
				<g>
					<g>
						<path style="fill:#27AAE1;" d="M3642.068,1952.306c38.629-84.834-337.749-154.344-359.807-350.361
							c29-195.109,407.607-251.21,372.029-337.357c-36.943-89.407-167.311-9.842-276.783,29.653
							c-145.97,52.664-389.211,138.118-389.211,138.118s-166.633,49.512-168.607,161.373
							c-1.995,111.859,162.775,167.253,162.775,167.253s240.05,94.044,384.059,151.851
							C3474.525,1956.194,3601.986,2040.34,3642.068,1952.306z"/>
						<path style="fill:#27AAE1;" d="M3562.75,1751.952c-80.072-1.412-199.068-68.461-197.638-148.537
							c1.421-80.067,122.72-142.846,202.794-141.429c80.07,1.422,143.83,67.488,142.41,147.566
							C3708.893,1689.62,3642.825,1753.379,3562.75,1751.952z"/>
					</g>
				</g>
			</g>
		</g>
		<g>
			<g>
				<g>
					<g>
						<path style="fill:#39B54A;" d="M3576.682,1038.134c-32.672-87.302-347.961,129.688-502.162,6.68
							c-117.458-158.468,110.592-465.855,24.516-501.611c-89.345-37.097-125.266,111.346-174.747,216.683
							c-65.978,140.453-177.547,372.878-177.547,372.878s-82.821,152.836-5.121,233.329c77.688,80.509,233.368,3.168,233.368,3.168
							s236.237-103.24,378.942-164.197C3460.96,1159.354,3610.592,1128.729,3576.682,1038.134z"/>
						<path style="fill:#39B54A;" d="M3378.922,952.548c-57.615,55.622-189.171,92.355-244.78,34.723
							c-55.61-57.623-14.229-187.787,43.393-243.404c57.622-55.612,149.424-53.981,205.044,3.646
							C3438.188,805.135,3436.556,896.938,3378.922,952.548z"/>
					</g>
				</g>
			</g>
		</g>
	</g>
</g>
</svg>
